<?xml version="1.0" standalone="no"?>
<!DOCTYPE svg PUBLIC "-//W3C//DTD SVG 20010904//EN"
 "http://www.w3.org/TR/2001/REC-SVG-20010904/DTD/svg10.dtd">
<svg version="1.0" xmlns="http://www.w3.org/2000/svg"
 width="92.000000pt" height="92.000000pt" viewBox="0 0 92.000000 92.000000"
 preserveAspectRatio="xMidYMid meet">
<metadata>
Created by potrace 1.11, written by Peter Selinger 2001-2013
</metadata>
<g transform="translate(0.000000,92.000000) scale(0.100000,-0.100000)"
fill="#000000" stroke="none">
<path d="M335 790 c-9 -14 4 -32 18 -23 13 7 -102 -114 -211 -224 -35 -35 -69
-62 -75 -61 -24 5 -67 -13 -67 -27 0 -8 3 -15 8 -16 13 -1 46 -8 66 -13 27 -8
81 -57 139 -129 51 -62 127 -137 140 -137 5 0 1 -7 -7 -16 -9 -8 -14 -20 -11
-25 7 -11 257 -10 275 1 15 9 -18 30 -48 30 -16 0 -22 14 -35 84 -9 46 -20 91
-23 99 -4 11 2 16 22 19 22 2 28 9 31 33 3 16 10 33 16 37 18 12 137 7 178 -6
44 -15 99 -12 139 9 36 18 37 26 9 51 -22 20 -65 22 -241 9 -77 -5 -88 -4 -96
12 -11 19 -12 25 -12 49 0 9 -6 14 -13 11 -31 -12 -37 7 -21 73 22 91 22 93
23 113 1 12 9 17 29 17 15 0 34 4 42 10 12 7 10 11 -11 18 -35 14 -256 15
-264 2z"/>
</g>
</svg>
